<?xml version="1.0" encoding="UTF-8" standalone="no"?>
<!-- Generator: Adobe Illustrator 19.0.0, SVG Export Plug-In . SVG Version: 6.00 Build 0)  -->

<svg
   xmlns:dc="http://purl.org/dc/elements/1.1/"
   xmlns:cc="http://creativecommons.org/ns#"
   xmlns:rdf="http://www.w3.org/1999/02/22-rdf-syntax-ns#"
   xmlns:svg="http://www.w3.org/2000/svg"
   xmlns="http://www.w3.org/2000/svg"
   xmlns:sodipodi="http://sodipodi.sourceforge.net/DTD/sodipodi-0.dtd"
   xmlns:inkscape="http://www.inkscape.org/namespaces/inkscape"
   version="1.1"
   id="Layer_1"
   x="0px"
   y="0px"
   viewBox="0 0 489.701 489.701"
   style="enable-background:new 0 0 489.701 489.701;"
   xml:space="preserve"
   sodipodi:docname="lock.svg"
   inkscape:version="0.92.4 (5da689c313, 2019-01-14)"><metadata
   id="metadata49"><rdf:RDF><cc:Work
       rdf:about=""><dc:format>image/svg+xml</dc:format><dc:type
         rdf:resource="http://purl.org/dc/dcmitype/StillImage" /><dc:title></dc:title></cc:Work></rdf:RDF></metadata><defs
   id="defs47" /><sodipodi:namedview
   pagecolor="#ffffff"
   bordercolor="#666666"
   borderopacity="1"
   objecttolerance="10"
   gridtolerance="10"
   guidetolerance="10"
   inkscape:pageopacity="0"
   inkscape:pageshadow="2"
   inkscape:window-width="1024"
   inkscape:window-height="710"
   id="namedview45"
   showgrid="false"
   inkscape:zoom="0.96385348"
   inkscape:cx="388.00916"
   inkscape:cy="315.47347"
   inkscape:window-x="0"
   inkscape:window-y="0"
   inkscape:window-maximized="1"
   inkscape:current-layer="g12" />
<g
   id="g12">
	<g
   id="g10"
   transform="matrix(1.0127119,0,0,1.081935,8.4318987,-58.39714)">
		
		<path
   style="fill:#2c2f33"
   d="M 13.525984,423.22505 H 225.42598 v 68.7 h -91.8 c -5,0 -9.1,4.1 -9.1,9.1 0,5 4.1,9.1 9.1,9.1 h 201.7 c 5,0 9.1,-4.1 9.1,-9.1 0,-5 -4.1,-9.1 -9.1,-9.1 h -91.8 v -68.7 h 211.9 c 13.2,0 23.9,-10.7 23.9,-23.9 v -284.4 c 0,-13.2 -10.7,-23.899997 -23.9,-23.899997 h -100.8 c -5,0 -9.1,4.1 -9.1,9.099997 0,5 4.1,9.1 9.1,9.1 h 100.7 c 3.2,0 5.8,2.6 5.8,5.8 v 284.4 c 0,3.2 -2.6,5.8 -5.8,5.8 H 13.525984 c -3.2,0 -5.8000002,-2.6 -5.8000002,-5.8 v -284.5 c 0,-3.2 2.6000002,-5.8 5.8000002,-5.8 H 114.52598 c 5,0 9.1,-4.1 9.1,-9.1 0,-4.999997 -4.1,-9.099997 -9.1,-9.099997 H 13.525984 c -13.20000025,0 -23.9,10.699997 -23.9,23.899997 v 284.4 c -0.1,13.3 10.69999975,24 23.9,24 z"
   id="path4"
   inkscape:connector-curvature="0" />
		<g
   id="g52" />
		<g
   id="g58"
   transform="matrix(1.3573969,0,0,1.3427062,-52.21604,-2.2447253)"><g
     id="g63"><path
       inkscape:connector-curvature="0"
       style="fill:#e64c3d;stroke-width:0.97829026"
       d="M 293.89641,277.64821 H 131.6168 c -3.93883,0 -7.0899,-3.11013 -7.0899,-6.99779 V 160.33797 c 0,-3.88767 3.15107,-6.9978 7.0899,-6.9978 h 162.27961 c 3.93883,0 7.08989,3.11013 7.08989,6.9978 v 110.31245 c 0,3.79046 -3.15106,6.99779 -7.08989,6.99779 z"
       id="path2" /><path
       sodipodi:nodetypes="ssssscssscsscssssccssssssssss"
       inkscape:connector-curvature="0"
       id="path6"
       d="m 138.80516,286.39546 h 147.90289 c 12.80119,0 23.23908,-10.30232 23.23908,-22.93722 v -96.12249 c 0,-12.6349 -10.43789,-22.93721 -23.23908,-22.93721 h -2.75718 v -34.89178 c 0,-38.779439 -31.90448,-70.269514 -71.19427,-70.269514 -39.28978,0 -71.19427,31.490075 -71.19427,70.269514 v 34.98897 h -2.75717 c -12.80119,0 -23.23908,10.30231 -23.23908,22.93722 v 96.12248 c 0.0985,12.63491 10.43789,22.84003 23.23908,22.84003 z m 20.58036,-176.8887 c 0,-29.06028 23.92836,-52.677837 53.37108,-52.677837 29.44273,0 53.37109,23.617557 53.37109,52.677837 v 34.98897 H 159.38552 Z m -25.89778,57.92619 c 0,-2.91575 3.78694,-2.72713 5.31742,-5.24835 1.21362,-1.99924 50.35105,-2.00605 147.90289,0 2.95349,0.0608 5.31742,2.3326 5.31742,5.24835 v 96.12248 c 0,2.91574 -2.36329,5.24835 -5.31742,5.24835 H 138.80516 c -2.95413,0 -5.31742,-2.33261 -5.31742,-5.24835 z"
       style="fill:#2c2f33;stroke-width:0.97829026" /><path
       inkscape:connector-curvature="0"
       style="fill:#2c2f33;stroke-width:0.97829026"
       d="m 204.97742,216.80627 c 0.98471,0.77753 1.28013,1.45788 1.28013,2.62417 0,5.53993 0,11.17705 0,16.71696 v 0 c 0,4.56801 4.92353,8.06691 9.84706,5.63712 2.06788,-1.06911 3.24953,-3.30452 3.15105,-5.63712 v 0 c 0,-5.53991 0,-11.17703 0,-16.71696 0,-1.26348 0.29541,-2.04102 1.37859,-2.72135 3.54495,-2.52699 5.31742,-6.12307 5.31742,-10.3995 -0.0985,-6.31746 -4.52964,-11.37142 -10.83178,-12.63491 -5.71129,-1.1663 -11.81647,2.04102 -14.27824,7.48375 -2.6587,5.53992 -0.9847,11.85737 4.13577,15.64784 z"
       id="path8" /></g></g>
	</g>
</g>
<g
   id="g14">
</g>
<g
   id="g16">
</g>
<g
   id="g18">
</g>
<g
   id="g20">
</g>
<g
   id="g22">
</g>
<g
   id="g24">
</g>
<g
   id="g26">
</g>
<g
   id="g28">
</g>
<g
   id="g30">
</g>
<g
   id="g32">
</g>
<g
   id="g34">
</g>
<g
   id="g36">
</g>
<g
   id="g38">
</g>
<g
   id="g40">
</g>
<g
   id="g42">
</g>
</svg>