<?xml version="1.0" encoding="UTF-8" standalone="no"?>
<!-- Generator: Adobe Illustrator 19.0.0, SVG Export Plug-In . SVG Version: 6.00 Build 0)  -->

<svg
   xmlns:dc="http://purl.org/dc/elements/1.1/"
   xmlns:cc="http://creativecommons.org/ns#"
   xmlns:rdf="http://www.w3.org/1999/02/22-rdf-syntax-ns#"
   xmlns:svg="http://www.w3.org/2000/svg"
   xmlns="http://www.w3.org/2000/svg"
   xmlns:sodipodi="http://sodipodi.sourceforge.net/DTD/sodipodi-0.dtd"
   xmlns:inkscape="http://www.inkscape.org/namespaces/inkscape"
   version="1.1"
   id="Layer_1"
   x="0px"
   y="0px"
   viewBox="0 0 489.701 489.701"
   style="enable-background:new 0 0 489.701 489.701;"
   xml:space="preserve"
   sodipodi:docname="reboot.svg"
   inkscape:version="0.92.4 (5da689c313, 2019-01-14)"><metadata
   id="metadata49"><rdf:RDF><cc:Work
       rdf:about=""><dc:format>image/svg+xml</dc:format><dc:type
         rdf:resource="http://purl.org/dc/dcmitype/StillImage" /><dc:title></dc:title></cc:Work></rdf:RDF></metadata><defs
   id="defs47" /><sodipodi:namedview
   pagecolor="#ffffff"
   bordercolor="#666666"
   borderopacity="1"
   objecttolerance="10"
   gridtolerance="10"
   guidetolerance="10"
   inkscape:pageopacity="0"
   inkscape:pageshadow="2"
   inkscape:window-width="1024"
   inkscape:window-height="710"
   id="namedview45"
   showgrid="false"
   inkscape:zoom="0.96385348"
   inkscape:cx="388.00916"
   inkscape:cy="315.47347"
   inkscape:window-x="0"
   inkscape:window-y="0"
   inkscape:window-maximized="1"
   inkscape:current-layer="g12" />
<g
   id="g12">
	<g
   id="g10"
   transform="matrix(1.0127119,0,0,1.081935,8.4318987,-58.39714)">
		
		<path
   style="fill:#2c2f33"
   d="M 13.525984,423.22505 H 225.42598 v 68.7 h -91.8 c -5,0 -9.1,4.1 -9.1,9.1 0,5 4.1,9.1 9.1,9.1 h 201.7 c 5,0 9.1,-4.1 9.1,-9.1 0,-5 -4.1,-9.1 -9.1,-9.1 h -91.8 v -68.7 h 211.9 c 13.2,0 23.9,-10.7 23.9,-23.9 v -284.4 c 0,-13.2 -10.7,-23.899997 -23.9,-23.899997 h -100.8 c -5,0 -9.1,4.1 -9.1,9.099997 0,5 4.1,9.1 9.1,9.1 h 100.7 c 3.2,0 5.8,2.6 5.8,5.8 v 284.4 c 0,3.2 -2.6,5.8 -5.8,5.8 H 13.525984 c -3.2,0 -5.8000002,-2.6 -5.8000002,-5.8 v -284.5 c 0,-3.2 2.6000002,-5.8 5.8000002,-5.8 H 114.52598 c 5,0 9.1,-4.1 9.1,-9.1 0,-4.999997 -4.1,-9.099997 -9.1,-9.099997 H 13.525984 c -13.20000025,0 -23.9,10.699997 -23.9,23.899997 v 284.4 c -0.1,13.3 10.69999975,24 23.9,24 z"
   id="path4"
   inkscape:connector-curvature="0" />
		<g
   id="g52" />
		<g
   id="g58"
   transform="matrix(1.3573969,0,0,1.3427062,-52.21604,-2.2447253)"><g
     id="g63" /></g>
	</g>
<path
   inkscape:connector-curvature="0"
   style="fill:none;stroke:#21b921;stroke-width:42.55539703px;stroke-linecap:round;stroke-linejoin:round"
   d="m 188.08497,113.64581 c -78.25982,52.06585 -68.47734,231.40382 53.80362,231.40382 78.25982,0 102.71601,-75.20624 102.71601,-121.48701 0,-40.49567 -14.67371,-86.77644 -53.80363,-115.70191"
   id="path8" /><path
   inkscape:connector-curvature="0"
   style="fill:#21b921;stroke-width:5.31942463"
   d="m 139.17258,61.579942 88.0423,28.925479 -19.56496,104.131719"
   id="path10" /></g>
<g
   id="g14">
</g>
<g
   id="g16">
</g>
<g
   id="g18">
</g>
<g
   id="g20">
</g>
<g
   id="g22">
</g>
<g
   id="g24">
</g>
<g
   id="g26">
</g>
<g
   id="g28">
</g>
<g
   id="g30">
</g>
<g
   id="g32">
</g>
<g
   id="g34">
</g>
<g
   id="g36">
</g>
<g
   id="g38">
</g>
<g
   id="g40">
</g>
<g
   id="g42">
</g>
</svg>